<?xml version="1.0" encoding="iso-8859-1"?>
<!-- Generator: Adobe Illustrator 19.0.0, SVG Export Plug-In . SVG Version: 6.00 Build 0)  -->
<svg version="1.1" id="Capa_1" xmlns="http://www.w3.org/2000/svg" xmlns:xlink="http://www.w3.org/1999/xlink" x="0px" y="0px"
	 viewBox="0 0 469.333 469.333" style="enable-background:new 0 0 469.333 469.333;" xml:space="preserve">
<path style="fill:#303C42;" d="M469.333,162.479c0-33.462-48.087-52.846-96.602-55.497c-4.172-31.439-31.801-85.648-59.294-85.648
	c-9.896,0-21.458,2.302-33.708,4.729C265.75,28.844,249.875,32,234.667,32s-31.083-3.156-45.063-5.938
	c-12.25-2.427-23.813-4.729-33.708-4.729c-27.493,0-55.122,54.21-59.294,85.648C48.087,109.633,0,129.017,0,162.479
	c0,23.375,26.607,52.424,82.913,71.904c-0.005,0.145-0.013,0.285-0.017,0.43C66.104,246.375,64,265.948,64,280.26
	c0,18.802,16.75,60.635,40.646,68.333c0.163,0.392,0.316,0.807,0.474,1.225l-50.036-8.34c-4.25-0.677-8.604,1.25-10.875,4.979
	c-2.25,3.729-2.021,8.458,0.583,11.938l64,85.333c2.021,2.688,5.188,4.271,8.542,4.271H352c3.354,0,6.521-1.583,8.542-4.271
	l64-85.333c2.604-3.479,2.833-8.208,0.583-11.938c-2.271-3.729-6.625-5.656-10.875-4.979l-50.036,8.34
	c0.158-0.418,0.311-0.833,0.474-1.225c23.896-7.698,40.646-49.531,40.646-68.333c0-14.313-2.104-33.885-18.917-45.448
	c-0.003-0.142-0.012-0.281-0.016-0.423C442.72,214.91,469.333,185.858,469.333,162.479z"/>
<path style="fill:#5F6369;" d="M117.333,114.521c0-26.5,28.438-71.854,38.563-71.854c7.792,0,18.354,2.104,29.542,4.323
	c14.958,2.969,31.917,6.344,49.229,6.344s34.271-3.375,49.229-6.344c11.188-2.219,21.75-4.323,29.542-4.323
	c10.125,0,38.563,45.354,38.563,71.854l0.042,47.063C351.979,161.885,344.25,192,234.667,192
	c-108.813,0-117.208-29.688-117.333-29.688V114.521z"/>
<path style="opacity:0.2;fill:#FFFFFF;enable-background:new    ;" d="M155.854,53.333c7.792,0,18.354,2.104,29.542,4.323
	C200.354,60.625,217.313,64,234.625,64s34.271-3.375,49.229-6.344c11.188-2.219,21.75-4.323,29.542-4.323
	c10.125,0,38.563,45.354,38.563,71.854l0.033,36.556c0.013-0.046,0.049-0.152,0.051-0.16L352,114.521
	c0-26.5-28.438-71.854-38.563-71.854c-7.792,0-18.354,2.104-29.542,4.323c-14.958,2.969-31.917,6.344-49.229,6.344
	s-34.271-3.375-49.229-6.344c-11.188-2.219-21.75-4.323-29.542-4.323c-10.125,0-38.563,45.354-38.563,71.854v10.307
	C117.57,98.284,145.772,53.333,155.854,53.333z"/>
<polygon style="fill:#5F6369;" points="122.667,426.667 77.833,366.896 175.667,383.208 211.896,426.667 "/>
<polygon style="opacity:0.2;fill:#FFFFFF;enable-background:new    ;" points="180.576,395.645 211.896,426.667 175.667,383.208 
	77.833,366.896 122.667,426.667 134.758,426.667 96,384 "/>
<path style="fill:#D7D8DA;" d="M365.167,240.99c0,4.104,2.354,7.833,6.042,9.615c6.646,3.188,12.792,9,12.792,29.656
	c0,15.771-16.667,48.229-26.979,48.229c-4.167,0-7.938,2.417-9.688,6.198c-0.875,1.896-1.917,4.542-3.167,7.781
	c-1.225,3.214-2.801,7.188-4.626,11.462l-53.29,8.882c-2.521,0.417-4.813,1.729-6.438,3.688l-45.146,54.167L189.521,366.5
	c-1.625-1.958-3.917-3.271-6.438-3.688l-53.29-8.882c-1.826-4.275-3.401-8.249-4.626-11.462c-1.25-3.24-2.292-5.885-3.167-7.781
	c-1.75-3.781-5.521-6.198-9.688-6.198c-10.313,0-26.979-32.458-26.979-48.229c0-20.667,6.146-26.469,12.771-29.656
	c3.688-1.781,6.042-5.521,6.042-9.615c0-0.035,0.003-0.069,0.003-0.104c6.69,1.79,13.712,3.445,21.082,4.964
	c-4.853,5.612-7.897,12.833-7.897,20.818v10.667C117.333,300.865,136.479,320,160,320h10.667C200.083,320,224,296.073,224,266.667
	v-8.875c1.063-0.604,4.021-1.792,10.667-1.792s9.583,1.188,10.667,1.792v8.875c0,29.406,23.917,53.333,53.333,53.333h10.667
	C332.854,320,352,300.865,352,277.333v-10.667c0-7.984-3.044-15.206-7.897-20.818c7.362-1.516,14.376-3.171,21.061-4.958
	C365.164,240.924,365.167,240.956,365.167,240.99z"/>
<g>
	<path style="fill:#5C6671;" d="M138.667,266.667c0-5.885,4.792-10.667,10.667-10.667H192c5.875,0,10.667,4.781,10.667,10.667
		c0,17.646-14.354,32-32,32H160c-11.771,0-21.333-9.573-21.333-21.333V266.667z"/>
	<path style="fill:#5C6671;" d="M277.333,256H320c5.875,0,10.667,4.781,10.667,10.667v10.667c0,11.76-9.563,21.333-21.333,21.333
		h-10.667c-17.646,0-32-14.354-32-32C266.667,260.781,271.458,256,277.333,256z"/>
</g>
<linearGradient id="SVGID_1_" gradientUnits="userSpaceOnUse" x1="-60.4678" y1="611.9091" x2="-57.8338" y2="610.681" gradientTransform="matrix(21.3333 0 0 -21.3333 1430.1112 13315.2227)">
	<stop  offset="0" style="stop-color:#FFFFFF;stop-opacity:0.2"/>
	<stop  offset="1" style="stop-color:#FFFFFF;stop-opacity:0"/>
</linearGradient>
<path style="fill:url(#SVGID_1_);" d="M138.667,266.667c0-5.885,4.792-10.667,10.667-10.667H192c5.875,0,10.667,4.781,10.667,10.667
	c0,17.646-14.354,32-32,32H160c-11.771,0-21.333-9.573-21.333-21.333V266.667z"/>
<linearGradient id="SVGID_2_" gradientUnits="userSpaceOnUse" x1="-54.4329" y1="611.9838" x2="-51.65" y2="610.6859" gradientTransform="matrix(21.3333 0 0 -21.3333 1430.1112 13315.2227)">
	<stop  offset="0" style="stop-color:#FFFFFF;stop-opacity:0.2"/>
	<stop  offset="1" style="stop-color:#FFFFFF;stop-opacity:0"/>
</linearGradient>
<path style="fill:url(#SVGID_2_);" d="M277.333,256H320c5.875,0,10.667,4.781,10.667,10.667v10.667
	c0,11.76-9.563,21.333-21.333,21.333h-10.667c-17.646,0-32-14.354-32-32C266.667,260.781,271.458,256,277.333,256z"/>
<path style="fill:#5F6369;" d="M234.667,234.667c-160.813,0-213.333-53.688-213.333-72.188c0-16.286,34.419-31.311,74.667-33.927
	v33.76c0,8.521,6.688,51.021,138.667,51.021s138.667-42.5,138.667-51.021v-33.76C413.581,131.168,448,146.193,448,162.479
	C448,180.979,395.479,234.667,234.667,234.667z"/>
<path style="opacity:0.1;enable-background:new    ;" d="M426.585,140.827c0.003,0.108,0.082,0.211,0.082,0.319
	c0,12.743-24.947,42.178-93.025,59.266c-20.573,7.411-51.612,12.922-98.975,12.922c-3.819,0-7.178-0.152-10.79-0.221
	c-3.555,0.055-6.876,0.221-10.543,0.221c-101.484,0-159.767-21.378-189.013-41.803c12.949,22.788,70.889,63.137,210.346,63.137
	c160.813,0,213.333-53.688,213.333-72.188C448,154.518,439.694,146.883,426.585,140.827z"/>
<polygon style="fill:#5F6369;" points="257.438,426.667 293.667,383.208 391.5,366.896 346.667,426.667 "/>
<polygon style="opacity:0.2;fill:#FFFFFF;enable-background:new    ;" points="288.758,395.645 257.438,426.667 293.667,383.208 
	391.5,366.896 346.667,426.667 334.576,426.667 373.333,384 "/>
<linearGradient id="SVGID_3_" gradientUnits="userSpaceOnUse" x1="-66.652" y1="617.7102" x2="-46.6445" y2="608.3804" gradientTransform="matrix(21.3333 0 0 -21.3333 1430.1112 13315.2227)">
	<stop  offset="0" style="stop-color:#FFFFFF;stop-opacity:0.2"/>
	<stop  offset="1" style="stop-color:#FFFFFF;stop-opacity:0"/>
</linearGradient>
<path style="fill:url(#SVGID_3_);" d="M469.333,162.479c0-33.462-48.087-52.846-96.602-55.497
	c-4.172-31.439-31.801-85.648-59.294-85.648c-9.896,0-21.458,2.302-33.708,4.729C265.75,28.844,249.875,32,234.667,32
	s-31.083-3.156-45.063-5.938c-12.25-2.427-23.813-4.729-33.708-4.729c-27.493,0-55.122,54.21-59.294,85.648
	C48.087,109.633,0,129.017,0,162.479c0,23.375,26.607,52.424,82.913,71.904c-0.005,0.145-0.013,0.285-0.017,0.43
	C66.104,246.375,64,265.948,64,280.26c0,18.802,16.75,60.635,40.646,68.333c0.163,0.392,0.316,0.807,0.474,1.225l-50.036-8.34
	c-4.25-0.677-8.604,1.25-10.875,4.979c-2.25,3.729-2.021,8.458,0.583,11.938l64,85.333c2.021,2.688,5.188,4.271,8.542,4.271H352
	c3.354,0,6.521-1.583,8.542-4.271l64-85.333c2.604-3.479,2.833-8.208,0.583-11.938c-2.271-3.729-6.625-5.656-10.875-4.979
	l-50.036,8.34c0.158-0.418,0.311-0.833,0.474-1.225c23.896-7.698,40.646-49.531,40.646-68.333c0-14.313-2.104-33.885-18.917-45.448
	c-0.003-0.142-0.012-0.281-0.016-0.423C442.72,214.91,469.333,185.858,469.333,162.479z"/>
<g>
</g>
<g>
</g>
<g>
</g>
<g>
</g>
<g>
</g>
<g>
</g>
<g>
</g>
<g>
</g>
<g>
</g>
<g>
</g>
<g>
</g>
<g>
</g>
<g>
</g>
<g>
</g>
<g>
</g>
</svg>
